<svg width="41" height="42" viewBox="0 0 41 42" fill="none" xmlns="http://www.w3.org/2000/svg">
<path d="M37.145 10.2488C35.9202 10.7771 34.5873 11.1574 33.2144 11.3055C34.6398 10.4586 35.7072 9.12084 36.2164 7.54301C34.8788 8.33869 33.4136 8.89663 31.8855 9.19208C31.2469 8.50935 30.4745 7.96545 29.6165 7.59428C28.7585 7.22311 27.8332 7.03262 26.8983 7.03468C23.1159 7.03468 20.0739 10.1007 20.0739 13.8631C20.0739 14.3915 20.1379 14.9198 20.242 15.4281C14.5783 15.1319 9.52705 12.4262 6.16887 8.28349C5.55697 9.32863 5.23632 10.5186 5.24026 11.7297C5.24026 14.0993 6.44505 16.1886 8.28224 17.4174C7.19955 17.3748 6.14222 17.0772 5.19624 16.5489V16.6329C5.19624 19.9511 7.54176 22.7009 10.6678 23.3333C10.0808 23.4857 9.47704 23.5637 8.87062 23.5654C8.42633 23.5654 8.00606 23.5214 7.58178 23.4613C8.44634 26.1671 10.964 28.1324 13.9619 28.1964C11.6164 30.0336 8.67849 31.1143 5.48843 31.1143C4.91605 31.1143 4.38771 31.0943 3.83936 31.0303C6.86532 32.9715 10.4556 34.0922 14.3222 34.0922C26.8743 34.0922 33.7428 23.6935 33.7428 14.6676C33.7428 14.3714 33.7428 14.0753 33.7227 13.7791C35.0516 12.8064 36.2164 11.6016 37.145 10.2488Z" fill="white"/>
</svg>
