<svg width="40" height="40" viewBox="0 0 40 40" fill="none" xmlns="http://www.w3.org/2000/svg">
<path d="M0 20C0 8.95431 8.95431 0 20 0C31.0457 0 40 8.95431 40 20C40 31.0457 31.0457 40 20 40C8.95431 40 0 31.0457 0 20Z" fill="#FFEAA7"/>
<path d="M25 10H22C20.6739 10 19.4021 10.5268 18.4645 11.4645C17.5268 12.4021 17 13.6739 17 15V18H14V22H17V30H21V22H24L25 18H21V15C21 14.7348 21.1054 14.4804 21.2929 14.2929C21.4804 14.1054 21.7348 14 22 14H25V10Z" stroke="#6C5CE7" stroke-width="2" stroke-linecap="round" stroke-linejoin="round"/>
</svg>
