<svg width="43" height="43" viewBox="0 0 43 43" fill="none" xmlns="http://www.w3.org/2000/svg">
<path d="M29.65 16H12.85C11.6902 16 10.75 16.9402 10.75 18.1V28.6C10.75 29.7598 11.6902 30.7 12.85 30.7H29.65C30.8098 30.7 31.75 29.7598 31.75 28.6V18.1C31.75 16.9402 30.8098 16 29.65 16Z" stroke="white" stroke-width="2" stroke-linecap="round" stroke-linejoin="round"/>
<path d="M25.4501 30.7001V13.9C25.4501 13.3431 25.2288 12.809 24.835 12.4151C24.4411 12.0213 23.907 11.8 23.35 11.8H19.15C18.5931 11.8 18.059 12.0213 17.6651 12.4151C17.2713 12.809 17.05 13.3431 17.05 13.9V30.7001" stroke="white" stroke-width="2" stroke-linecap="round" stroke-linejoin="round"/>
</svg>
