<svg width="61" height="66" viewBox="0 0 61 66" fill="none" xmlns="http://www.w3.org/2000/svg">
<g clip-path="url(#clip0)">
<path d="M56.4201 52.7476C55.9677 56.1095 53.7053 59.0185 50.5379 60.3113C48.9864 60.957 47.3059 61.1516 45.625 60.957C44.0092 60.7634 42.3929 60.2462 40.7125 59.2775C38.3851 57.9833 36.058 55.9803 33.3433 53.0066C37.6098 47.7706 40.1947 42.987 41.1648 38.7214C41.6174 36.7173 41.6818 34.9072 41.4883 33.2262C41.23 31.6105 40.648 30.1231 39.7426 28.8305C37.7387 25.922 34.3778 24.241 30.6285 24.241C26.8792 24.241 23.518 25.9866 21.5141 28.8305C20.6087 30.1234 20.0277 31.6105 19.7687 33.2262C19.5104 34.9072 19.5749 36.7817 20.0922 38.7216C21.0615 42.9868 23.7116 47.8353 27.9137 53.0703C25.2634 56.0448 22.8716 58.0484 20.5443 59.3415C18.8638 60.3113 17.2476 60.8286 15.6318 61.0217C13.9661 61.2078 12.2801 60.9862 10.719 60.376C7.55146 59.0832 5.28951 56.1732 4.8367 52.812C4.6431 51.1965 4.77224 49.5807 5.41865 47.7706C5.61224 47.1237 5.93591 46.4785 6.25865 45.7023C6.71146 44.6684 7.22873 43.5687 7.74529 42.4695L7.81045 42.3411C12.2701 32.709 17.054 22.8837 22.0314 13.3173L22.2252 12.9287C22.7425 11.96 23.259 10.9262 23.7768 9.95609C24.2936 8.92156 24.8753 7.95172 25.5861 7.11078C26.9436 5.55922 28.7537 4.71898 30.7576 4.71898C32.7615 4.71898 34.5714 5.55922 35.9289 7.11102C36.64 7.95172 37.2217 8.92156 37.739 9.95633C38.2562 10.9262 38.7728 11.96 39.2901 12.9287L39.4846 13.3173C44.3969 22.9482 49.1807 32.7734 53.6408 42.4055V42.4695C54.1581 43.5041 54.6102 44.6684 55.1275 45.7023C55.4509 46.4785 55.7739 47.1235 55.9675 47.7706C56.4847 49.4511 56.6786 51.0678 56.4203 52.7476H56.4201ZM30.6285 49.7091C27.1382 45.3141 24.8753 41.1767 24.0997 37.6871C23.777 36.2 23.7116 34.9072 23.9061 33.7435C24.0351 32.709 24.4234 31.8036 24.9397 31.0273C26.1681 29.2836 28.2365 28.1827 30.6285 28.1827C33.0203 28.1827 35.1533 29.218 36.3168 31.0273C36.8336 31.8036 37.2217 32.709 37.3508 33.7435C37.5447 34.9072 37.48 36.2645 37.157 37.6871C36.3815 41.1127 34.1188 45.2497 30.6285 49.7091ZM59.7815 46.3482C59.4585 45.5724 59.1351 44.7324 58.8121 44.0213C58.2948 42.8584 57.7776 41.7587 57.325 40.7241L57.2603 40.6602C52.8006 30.9634 48.0168 21.1381 42.9747 11.4434L42.7811 11.0544C42.2638 10.0848 41.7465 9.05023 41.23 8.01617C40.5831 6.85203 39.9365 5.62508 38.9026 4.4607C36.8333 1.87508 33.8605 0.453125 30.6927 0.453125C27.4607 0.453125 24.5521 1.87508 22.4186 4.33203C21.4494 5.49523 20.7383 6.72336 20.0919 7.88773C19.5747 8.92156 19.0574 9.95609 18.5404 10.9262L18.3465 11.3129C13.3696 21.009 8.5213 30.8349 4.06091 40.531L3.99646 40.6602C3.54365 41.694 3.02638 42.7925 2.50912 43.9569C2.16331 44.723 1.84012 45.4991 1.53998 46.2842C0.699274 48.6753 0.440993 50.9382 0.763961 53.2648C1.47552 58.1131 4.70755 62.1861 9.16771 63.9955C10.8479 64.707 12.5933 65.03 14.4036 65.03C14.9207 65.03 15.5671 64.9653 16.0844 64.9002C18.2172 64.6412 20.4149 63.9315 22.5477 62.7027C25.1985 61.216 27.7197 59.0832 30.5636 55.9803C33.4075 59.0832 35.9933 61.2162 38.579 62.7027C40.7125 63.9315 42.91 64.6412 45.043 64.9002C45.5603 64.9653 46.2067 65.03 46.7237 65.03C48.5338 65.03 50.3434 64.707 51.9597 63.9955C56.4845 62.1861 59.6519 58.0487 60.3629 53.2648C60.8802 51.0019 60.6212 48.7407 59.7812 46.348L59.7815 46.3482Z" fill="#E0565B"/>
</g>
<defs>
<clipPath id="clip0">
<rect width="60" height="64.6875" fill="white" transform="translate(0.629517 0.453125)"/>
</clipPath>
</defs>
</svg>
