<svg width="151" height="61" viewBox="0 0 151 61" fill="none" xmlns="http://www.w3.org/2000/svg">
<g clip-path="url(#clip0)">
<path d="M0.629517 0.796875V4.89795H29.7983V0.796875H0.629517ZM33.931 0.796875V4.89795H75.4978C75.4978 4.89795 71.2519 0.796875 65.6285 0.796875H33.931ZM83.652 0.796875V4.89795H108.799L107.307 0.796875H83.652ZM126.829 0.796875L125.336 4.89795H150.255V0.796875H126.829ZM0.629517 8.77248V12.8736H29.7983V8.77248H0.629517ZM33.931 8.77834V12.8736H80.3212C80.3212 12.8736 79.7795 9.71727 78.8344 8.77834H33.931ZM83.652 8.77834V12.8736H111.556L110.175 8.77834H83.652ZM123.843 8.77834L122.462 12.8736H150.255V8.77834H123.843ZM9.01196 16.7481V20.8544H21.6442V16.7481H9.01196ZM42.3134 16.7481V20.8544H54.9456V16.7481H42.3134ZM67.2324 16.7481V20.8544H79.8646C79.8646 20.8544 80.6666 18.6857 80.6666 16.7478H67.2324V16.7481ZM92.0344 16.7481V20.8544H114.43L112.938 16.7478H92.0344V16.7481ZM121.092 16.7481L119.593 20.8547H142.101V16.7481H121.092ZM9.01196 24.7296V28.83H21.6442V24.7296H9.01196ZM42.3134 24.7296V28.83H74.5788C74.5788 28.83 77.2779 26.7257 78.1378 24.729H42.3134V24.7296ZM92.0344 24.7296V28.83H104.667V26.5471L105.469 28.83H128.608L129.469 26.5471V28.83H142.101V24.7296H118.388L117.129 28.2034L115.865 24.7296H92.0344ZM9.01196 32.7046V36.8057H21.6442V32.7046H9.01196ZM42.3134 32.7046V36.8057H78.1378C77.2776 34.8154 74.5788 32.7046 74.5788 32.7046H42.3134ZM92.0344 32.7046V36.8057H104.667V32.7046H92.0344ZM106.961 32.7046L108.489 36.8057H125.839L127.291 32.7046H106.961ZM129.469 32.7046V36.8057H142.101V32.7046H129.469ZM9.01196 40.6802V44.7813H21.6442V40.6802H9.01196ZM42.3134 40.6802V44.7813H54.9456V40.6802H42.3134ZM67.2324 40.6802V44.7813H80.6666C80.6666 42.8458 79.8646 40.6802 79.8646 40.6802H67.2324ZM92.0344 40.6802V44.7813H104.667V40.6802H92.0344ZM109.83 40.6802L111.31 44.7813H122.942L124.434 40.6802H109.83ZM129.469 40.6802V44.7813H142.101V40.6802H129.469ZM0.857809 48.6561V52.7627H30.0266V48.6558H0.857809V48.6561ZM33.931 48.6561V52.7627H78.8344C79.7795 51.8223 80.3212 48.6558 80.3212 48.6558H33.931V48.6561ZM83.8802 48.6561V52.7627H104.667V48.6558H83.8802V48.6561ZM112.704 48.6561L114.226 52.7627H120.144L121.572 48.6558H112.704V48.6561ZM129.469 48.6561V52.7627H150.483V48.6558H129.469V48.6561ZM0.857809 56.6373V60.7383H30.0266V56.6373H0.857809ZM33.931 56.6373V60.7322H65.6285C71.2519 60.7322 75.4978 56.637 75.4978 56.637H33.931V56.6373ZM83.8802 56.6373V60.7383H104.667V56.6373H83.8802ZM115.59 56.6373L117.053 60.7263L117.305 60.7322L118.791 56.637H115.59V56.6373ZM129.469 56.6373V60.7383H150.483V56.6373H129.469Z" fill="#1F70C1"/>
</g>
<defs>
<clipPath id="clip0">
<rect width="149.854" height="60" fill="white" transform="translate(0.629517 0.796875)"/>
</clipPath>
</defs>
</svg>
