<svg width="40" height="40" viewBox="0 0 40 40" fill="none" xmlns="http://www.w3.org/2000/svg">
<path d="M30.5406 14.42C30.4218 13.9454 30.1799 13.5106 29.8392 13.1594C29.4986 12.8082 29.0713 12.5532 28.6006 12.42C26.8806 12 20.0006 12 20.0006 12C20.0006 12 13.1206 12 11.4006 12.46C10.9298 12.5932 10.5025 12.8482 10.1619 13.1994C9.82129 13.5506 9.57936 13.9854 9.46057 14.46C9.14579 16.2056 8.99181 17.9763 9.00057 19.75C8.98935 21.537 9.14334 23.3213 9.46057 25.08C9.59153 25.5398 9.83888 25.9581 10.1787 26.2945C10.5186 26.6308 10.9394 26.8738 11.4006 27C13.1206 27.46 20.0006 27.46 20.0006 27.46C20.0006 27.46 26.8806 27.46 28.6006 27C29.0713 26.8668 29.4986 26.6118 29.8392 26.2606C30.1799 25.9094 30.4218 25.4746 30.5406 25C30.8529 23.2676 31.0069 21.5103 31.0006 19.75C31.0118 17.963 30.8578 16.1787 30.5406 14.42V14.42Z" stroke="#2D3436" stroke-width="2" stroke-linecap="round" stroke-linejoin="round"/>
<path d="M17.7506 23.02L23.5006 19.75L17.7506 16.48V23.02Z" stroke="#2D3436" stroke-width="2" stroke-linecap="round" stroke-linejoin="round"/>
</svg>
