<svg width="42" height="42" viewBox="0 0 42 42" fill="none" xmlns="http://www.w3.org/2000/svg">
<path d="M36.2103 4.55322H6.75117C6.04271 4.55322 5.47034 5.12559 5.47034 5.83405V35.2932C5.47034 36.0016 6.04271 36.574 6.75117 36.574H36.2103C36.9187 36.574 37.4911 36.0016 37.4911 35.2932V5.83405C37.4911 5.12559 36.9187 4.55322 36.2103 4.55322ZM32.5119 13.8993H29.9542C27.9489 13.8993 27.5607 14.8519 27.5607 16.2528V19.3388H32.3478L31.7234 24.17H27.5607V36.574H22.5694V24.174H18.3947V19.3388H22.5694V15.7765C22.5694 11.6418 25.0951 9.38836 28.7855 9.38836C30.5546 9.38836 32.0716 9.52045 32.5159 9.58048V13.8993H32.5119Z" fill="white"/>
</svg>
