<svg width="42" height="42" viewBox="0 0 42 42" fill="none" xmlns="http://www.w3.org/2000/svg">
<path d="M36.1981 4.55322H6.73896C6.0305 4.55322 5.45813 5.12559 5.45813 5.83405V35.2932C5.45813 36.0016 6.0305 36.574 6.73896 36.574H36.1981C36.9065 36.574 37.4789 36.0016 37.4789 35.2932V5.83405C37.4789 5.12559 36.9065 4.55322 36.1981 4.55322ZM14.9563 31.8389H10.2052V16.557H14.9563V31.8389ZM12.5828 14.4677C12.0381 14.4677 11.5057 14.3061 11.0528 14.0036C10.6 13.701 10.247 13.2709 10.0386 12.7677C9.83016 12.2645 9.77562 11.7108 9.88188 11.1766C9.98813 10.6424 10.2504 10.1518 10.6355 9.76665C11.0207 9.38152 11.5113 9.11925 12.0455 9.013C12.5797 8.90674 13.1334 8.96127 13.6366 9.1697C14.1398 9.37813 14.5699 9.73109 14.8724 10.1839C15.175 10.6368 15.3365 11.1692 15.3365 11.7139C15.3325 13.2349 14.0997 14.4677 12.5828 14.4677ZM32.7438 31.8389H27.9968V24.4061C27.9968 22.633 27.9647 20.3555 25.5272 20.3555C23.0576 20.3555 22.6773 22.2847 22.6773 24.278V31.8389H17.9342V16.557H22.4892V18.6464H22.5532C23.1856 17.4456 24.7346 16.1768 27.0481 16.1768C31.8593 16.1768 32.7438 19.3428 32.7438 23.4575V31.8389Z" fill="white"/>
</svg>
