<svg width="30" height="30" viewBox="0 0 30 30" fill="none" xmlns="http://www.w3.org/2000/svg">
<path d="M12.5495 13.395C14.0285 15.855 13.811 18.75 12.042 19.92C10.273 21.06 7.634 19.995 6.1405 17.535C4.6615 15.075 4.8935 12.15 6.6625 11.01C8.4315 9.87 11.0705 10.935 12.5495 13.395ZM15 23.625C17.9 23.625 18.625 22.5 18.625 22.5C18.625 22.5 17.9 25.5 15 25.5C12.1 25.5 11.375 22.545 11.375 22.5C11.375 22.5 12.1 23.625 15 23.625ZM23.3375 11.01C25.1065 12.15 25.3385 15.075 23.8595 17.535C22.366 19.995 19.727 21.06 17.958 19.92C16.189 18.75 15.9715 15.855 17.4505 13.395C18.9295 10.935 21.5685 9.87 23.3375 11.01ZM15 27C18.625 27 26.6 19.29 26.6 13.5C26.6 7.71 21.3945 3 15 3C8.6055 3 3.4 7.71 3.4 13.5C3.4 19.29 11.375 27 15 27ZM15 0C22.975 0 29.5 6.06 29.5 13.5C29.5 19.62 21.264 30 15 30C8.736 30 0.5 19.62 0.5 13.5C0.5 6.06 7.025 0 15 0Z" fill="#02E4C0"/>
</svg>
