<svg width="42" height="19" viewBox="0 0 42 19" fill="none" xmlns="http://www.w3.org/2000/svg">
<path d="M32.275 4.03437e-05C29.815 4.03437e-05 27.4917 0.988885 25.8346 2.70171L13.825 13.7203C12.7317 14.8504 11.2796 15.4684 9.725 15.4684C6.53042 15.4684 3.91667 12.8021 3.91667 9.50002C3.91667 6.19798 6.53042 3.53163 9.725 3.53163C11.2796 3.53163 12.7317 4.14966 13.8933 5.3504L15.8238 7.1162L18.4375 4.75003L16.2508 2.79C15.3953 1.90238 14.3782 1.19881 13.2581 0.719939C12.1379 0.241065 10.9371 -0.0036143 9.725 4.03437e-05C4.63417 4.03437e-05 0.5 4.27327 0.5 9.50002C0.5 14.7268 4.63417 19 9.725 19C12.185 19 14.5083 18.0112 16.1654 16.2983L28.175 5.27977C29.2683 4.14966 30.7204 3.53163 32.275 3.53163C35.4696 3.53163 38.0833 6.19798 38.0833 9.50002C38.0833 12.8021 35.4696 15.4684 32.275 15.4684C30.7375 15.4684 29.2683 14.8504 28.1067 13.6496L26.125 11.8662L23.5625 14.2324L25.7492 16.21C26.607 17.0932 27.625 17.7927 28.7448 18.2684C29.8646 18.7442 31.0643 18.9868 32.275 18.9823C37.3658 18.9823 41.5 14.7268 41.5 9.50002C41.5 4.20263 37.3658 4.03437e-05 32.275 4.03437e-05Z" fill="#02E4C0"/>
</svg>
