<svg width="26" height="24" viewBox="0 0 26 24" fill="none" xmlns="http://www.w3.org/2000/svg">
<path d="M7.64636 13.6089L11.4197 9.83554L3.16636 1.59554C2.52636 0.955542 1.41969 1.12888 1.01969 1.95554C0.073024 3.94221 0.419691 6.38221 2.05969 8.03554L7.64636 13.6089ZM16.6864 11.1955C18.7264 12.1422 21.593 11.4755 23.713 9.35554C26.2597 6.80887 26.753 3.15554 24.793 1.19554C22.8464 -0.751124 19.193 -0.271124 16.633 2.27554C14.513 4.39554 13.8464 7.26221 14.793 9.30221L2.71302 21.3822C2.46372 21.6315 2.32366 21.9696 2.32366 22.3222C2.32366 22.6748 2.46372 23.0129 2.71302 23.2622C2.96233 23.5115 3.30046 23.6516 3.65302 23.6516C4.00559 23.6516 4.34372 23.5115 4.59302 23.2622L12.8464 15.0355L21.0864 23.2755C21.2098 23.399 21.3563 23.4969 21.5176 23.5637C21.6789 23.6305 21.8518 23.6649 22.0264 23.6649C22.2009 23.6649 22.3738 23.6305 22.5351 23.5637C22.6964 23.4969 22.8429 23.399 22.9664 23.2755C23.0898 23.1521 23.1877 23.0055 23.2545 22.8443C23.3213 22.683 23.3557 22.5101 23.3557 22.3355C23.3557 22.161 23.3213 21.9881 23.2545 21.8268C23.1877 21.6655 23.0898 21.519 22.9664 21.3955L14.7264 13.1555L16.6864 11.1955Z" fill="#02E4C0"/>
</svg>
